# xmcd
#
# Track frame offsets:
#	150
#	15844
#	30057
#	45878
#	58850
#	75020
#	91823
#	107436
#	121701
#	146932
#	166119
#	180475
#	197054
#	214299
#	238035
#	254961
#	272483
#	291695
#	308070
#	328993
#	341223
#
# Disc length: 4741 seconds
#
# Revision: 3
# Processed by: cddbd v1.5.2PL0 Copyright (c) Steve Scherf et al.
# Submitted via: EasyCDDAExtractor 10.0.5.1
#
DISCID=21128315
DTITLE=Various Artist - 100 let ceske a slovenske pisnicky II [CD2)
DYEAR=1999
DGENRE=Pop
TTITLE0=Parada - Karel Zich
TTITLE1=Knofliky lasky - Y.Bartosova, P.Sepesi
TTITLE2=Hurikan - Dalibor Janda
TTITLE3=Tanecnice z Lucnice - Elan
TTITLE4=Poupata - Michal David
TTITLE5=Podme sa zachranit - Peter Nagy
TTITLE6=Sbohem lasko ja jedu dal - Josef Laufer
TTITLE7=Az se ti jednou bude zdat - Jakub Smolik
TTITLE8=Koloseum - Marika Gombitova
TTITLE9=Nenechme si lhat - Zentour
TTITLE10=Castecne zatmeni srdce - Lenka Filipova
TTITLE11=Reklama na ticho - Team
TTITLE12=Miss Moskva - Jiri Korn
TTITLE13=Stesti je krasna vec - Richard Muller
TTITLE14=Milujem se cim dal vic - Petr Kotvald
TTITLE15=Uz se blizi cas dluhu - Zoo
TTITLE16=Laska je laska - Lucie Bila
TTITLE17=Frantisek - Buty
TTITLE18=Zeme vzdalena - Balage, Strihavka, Pavlicek
TTITLE19=Na kolena - Ivan Hlas
TTITLE20=Skoda lasky - Ceska filharmonie
EXTD=ID3G: 13
EXTT0=
EXTT1=
EXTT2=
EXTT3=
EXTT4=
EXTT5=
EXTT6=
EXTT7=
EXTT8=
EXTT9=
EXTT10=
EXTT11=
EXTT12=
EXTT13=
EXTT14=
EXTT15=
EXTT16=
EXTT17=
EXTT18=
EXTT19=
EXTT20=
PLAYORDER=
